<?xml version="1.0" encoding="utf-8"?>
<!-- Generator: Adobe Illustrator 19.1.0, SVG Export Plug-In . SVG Version: 6.00 Build 0)  -->
<svg version="1.1" id="Layer_1" xmlns="http://www.w3.org/2000/svg" xmlns:xlink="http://www.w3.org/1999/xlink" x="0px" y="0px"
	 viewBox="-47 351.8 500 138.2" style="enable-background:new -47 351.8 500 138.2;" xml:space="preserve">
<style type="text/css">
	.st0{opacity:0.3;}
	.st1{fill:#021016;}
	.st2{fill:#112631;}
</style>
<g>
	<g>
		<g>
			<g class="st0">
				<path d="M402.2,440.7c-2.6-2-1.5-5.2-1.5-5.2l-0.5-0.6c0,0-0.6,2.2,0.3,3.9C401.4,440.5,402.2,440.7,402.2,440.7z"/>
				<path d="M398.5,433.9c0.5,0.4,1.1,0.7,1.7,0.9h0.1v0.1c-0.3,1-0.3,2,0,3c0.1,0.2,0.2,0.5,0.3,0.7c0.1,0.2,0.2,0.4,0.4,0.7
					c0.2,0.2,0.3,0.4,0.5,0.6l0.3,0.3l0.3,0.3c0.2,0.2,0.4,0.3,0.6,0.4s0.4,0.2,0.7,0.3c0.5,0.2,1,0.3,1.5,0.3s1,0,1.5-0.1
					c0.2-0.1,0.5-0.1,0.7-0.2l0.7-0.3l-0.7,0.4c-0.2,0.1-0.5,0.2-0.7,0.3c-0.5,0.1-1,0.2-1.5,0.2s-1-0.1-1.5-0.3
					c-0.2-0.1-0.5-0.2-0.7-0.3s-0.5-0.3-0.7-0.4l-0.3-0.2l-0.3-0.3c-0.2-0.2-0.3-0.4-0.5-0.6c-0.1-0.2-0.3-0.4-0.4-0.7
					c-0.1-0.2-0.2-0.5-0.3-0.7c-0.1-0.3-0.1-0.5-0.2-0.8c0-0.3,0-0.5,0-0.8c0-0.5,0.1-1,0.3-1.5v0.1c-0.3-0.1-0.6-0.3-0.9-0.5
					C399,434.3,398.8,434.1,398.5,433.9z"/>
				<path d="M407.6,407.1c0,0-3.9-1.6-5.9,1.4c-1.6,2.6-0.1,4.9-0.1,4.9s-4.4-0.3-5.4,4.6c-0.6,3.5,2.1,6.1,2.1,6.1s-3.3,2-2.2,6.1
					c0.5,1.8,1.5,3,2.3,3.7l0,0c-4.6-5.9,0.4-9.2,0.4-9.2l-0.7-0.7c0,0-2.6-3.4-1.2-6.6c1.4-3.3,5-3.6,5-3.6s-1.4-2.8,0.4-5
					c2.3-2.8,5.2-1.3,5.2-1.3v-0.4H407.6z"/>
				<path d="M404.5,406.6c0-4.4,0-8.7,0-13.1c0-1.5,0.3-3.1-1.5-4l-1-0.5h1.3c1.1,0,2.2-0.1,3.2,0.1c0.4,0.1,0.9,0.8,1.1,1.4
					c0.2,0.6,0.1,1.3,0.1,1.9c0,4.9,0,9.9,0,14.8"/>
				<path d="M407.6,440.7c0,4.4,0,8.8,0,13.2c0,3.4-0.6,4-4.1,3.4l-1.2-0.2l0.8-0.2c1.6-1.2,1.4-2.9,1.4-4.6c0-3.7,0-7.1,0-10.8"/>
			</g>
			<g>
				<g>
					<path class="st1" d="M401.7,440.2c-2.6-2-1.5-5.2-1.5-5.2l-0.5-0.6c0,0-0.6,2.2,0.3,3.9C400.9,439.9,401.7,440.2,401.7,440.2z"
						/>
				</g>
				<g>
					<path class="st2" d="M398,433.4c0.5,0.4,1.1,0.7,1.7,0.9h0.1v0.1c-0.3,1-0.3,2,0,3c0.1,0.2,0.2,0.5,0.3,0.7
						c0.1,0.2,0.2,0.4,0.4,0.7c0.2,0.2,0.3,0.4,0.5,0.6l0.3,0.3l0.3,0.3c0.2,0.2,0.4,0.3,0.6,0.4s0.4,0.2,0.7,0.3
						c0.5,0.2,1,0.3,1.5,0.3s1,0,1.5-0.1c0.2-0.1,0.5-0.1,0.7-0.2l0.7-0.3l-0.7,0.4c-0.2,0.1-0.5,0.2-0.7,0.3
						c-0.5,0.1-1,0.2-1.5,0.2s-1-0.1-1.5-0.3c-0.2-0.1-0.5-0.2-0.7-0.3s-0.5-0.3-0.7-0.4l-0.3-0.2l-0.3-0.3
						c-0.2-0.2-0.3-0.4-0.5-0.6c-0.1-0.2-0.3-0.4-0.4-0.7c-0.1-0.2-0.2-0.5-0.3-0.7c-0.1-0.3-0.1-0.5-0.2-0.8c0-0.3,0-0.5,0-0.8
						c0-0.5,0.1-1,0.3-1.5v0.1c-0.3-0.1-0.6-0.3-0.9-0.5C398.5,433.8,398.2,433.6,398,433.4z"/>
				</g>
				<path class="st2" d="M407.1,406.6c0,0-3.9-1.6-5.9,1.4c-1.6,2.6-0.1,4.9-0.1,4.9s-4.4-0.3-5.4,4.6c-0.6,3.5,2.1,6.1,2.1,6.1
					s-3.3,2-2.2,6.1c0.5,1.8,1.5,3,2.3,3.7l0,0c-4.6-5.9,0.4-9.2,0.4-9.2l-0.7-0.7c0,0-2.6-3.4-1.2-6.6c1.4-3.3,5-3.6,5-3.6
					s-1.4-2.8,0.4-5c2.3-2.8,5.2-1.3,5.2-1.3v-0.4H407.1z"/>
				<g>
					<path class="st2" d="M404,406c0-4.4,0-8.7,0-13.1c0-1.5,0.3-3.1-1.5-4l-1-0.5h1.3c1.1,0,2.2-0.1,3.2,0.1
						c0.4,0.1,0.9,0.8,1.1,1.4s0.1,1.3,0.1,1.9c0,4.9,0,9.9,0,14.8"/>
				</g>
				<g>
					<path class="st2" d="M407.1,440.2c0,4.4,0,8.8,0,13.2c0,3.4-0.6,4-4.1,3.4l-1.2-0.2l0.8-0.2c1.6-1.2,1.4-2.9,1.4-4.6
						c0-3.7,0-7.1,0-10.8"/>
				</g>
			</g>
		</g>
		<g>
			<g class="st0">
				<path d="M400,443.4l0.8-0.3v16.4c0,0,0.4,3.1-3.9,3.4l2-17.4L400,443.4z"/>
				<path d="M400.8,401v2.9c0,0-3.4-1.9-6.1,1.5c-2.1,2.6-0.4,5.9-0.4,5.9s-4.2,0.3-5.9,4.2c-1.7,3.9,1.4,7.9,1.4,7.9l0.8,0.8
					c0,0-6.1,3.8-0.6,10.9l-5.5-0.4v-50.9l12.5-2c0,0,3.9-0.3,3.9,2.7C400.8,387.4,400.8,401,400.8,401z"/>
				<path d="M391.8,436.2l0.7,0.8c0,0-1.3,3.8,1.7,6.1l-1.6-0.1l-2-3.5v-2.6L391.8,436.2z"/>
				<path d="M400,385.5V403c0,0-4-1.7-6.3,1.9c-1.9,3-0.1,5.8-0.1,5.8s-5.2-0.4-6.4,5.5c-0.7,4.2,2.5,7.2,2.5,7.2s-3.9,2.4-2.7,7.3
					c1.1,4.4,4.7,5.6,4.7,5.6s-1.3,3.6,1.6,6.3c2.3,2.2,5.2,1.4,6.2,1.1c0.2-0.1,0.3-0.1,0.3-0.1c0,1.8,0,3.6,0,5.3
					c0,3.4,0,6.7,0,10.1c0,0.8-0.1,1.8-0.5,2.5c-0.7,1.2-1.9,1.7-3.3,1.6c-4.3-0.4-8.6-0.8-12.8-1.1l-27.2-2c-2.5-0.2-5-0.4-7.5-0.6
					c-2.4-0.2-3.2-1.2-3.5-3.5c-0.1-0.7-0.1-1.4-0.1-2.1v-58.9c0-3.9,0.5-4.4,4.2-5.1c15.3-2.7,30.6-5.3,45.9-8
					c0.8-0.1,1.6-0.1,2.3,0c1.4,0.2,2.3,1.1,2.3,2.6C400,384.8,400,385.1,400,385.5z"/>
				<path d="M400,443.4v5.3l0,0C400,447,400,445.2,400,443.4L400,443.4z"/>
			</g>
			<g>
				<g>
					<g>
						<path class="st1" d="M399,442.4l0.8-0.3v16.4c0,0,0.4,3.1-3.9,3.4l2-17.4L399,442.4z"/>
					</g>
					<g>
						<path class="st1" d="M399.8,400v2.9c0,0-3.4-1.9-6.1,1.5c-2.1,2.6-0.4,5.9-0.4,5.9s-4.2,0.3-5.9,4.2c-1.7,3.9,1.4,7.9,1.4,7.9
							l0.8,0.8c0,0-6.1,3.8-0.6,10.9l-5.5-0.4v-50.9l12.5-2c0,0,3.9-0.3,3.9,2.7C399.8,386.4,399.8,400,399.8,400z"/>
					</g>
					<g>
						<path class="st1" d="M390.8,435.2l0.7,0.8c0,0-1.3,3.8,1.7,6.1l-1.6-0.1l-2-3.5v-2.6L390.8,435.2z"/>
					</g>
					<path class="st2" d="M399,384.5V402c0,0-4-1.7-6.3,1.9c-1.9,3-0.1,5.8-0.1,5.8s-5.2-0.4-6.4,5.5c-0.7,4.2,2.5,7.2,2.5,7.2
						s-3.9,2.4-2.7,7.3c1.1,4.4,4.7,5.6,4.7,5.6s-1.3,3.6,1.6,6.3c2.3,2.2,5.2,1.4,6.2,1.1c0.2-0.1,0.3-0.1,0.3-0.1
						c0,1.8,0,3.6,0,5.3c0,3.4,0,6.7,0,10.1c0,0.8-0.1,1.8-0.5,2.5c-0.7,1.2-1.9,1.7-3.3,1.6c-4.3-0.4-8.6-0.8-12.8-1.1l-27.2-2
						c-2.5-0.2-5-0.4-7.5-0.6c-2.4-0.2-3.2-1.2-3.5-3.5c-0.1-0.7-0.1-1.4-0.1-2.1v-58.9c0-3.9,0.5-4.4,4.2-5.1
						c15.3-2.7,30.6-5.3,45.9-8c0.8-0.1,1.6-0.1,2.3,0c1.4,0.2,2.3,1.1,2.3,2.6C399,383.8,399,384.1,399,384.5z"/>
					<g>
						<path class="st2" d="M399,442.4v5.3l0,0C399,446,399,444.2,399,442.4L399,442.4z"/>
					</g>
				</g>
			</g>
		</g>
	</g>
	<g>
		<g>
			<path class="st2" d="M7.2,454.6l0.2,4.2h-9.2v-49.1h9.2v24.2c1.9-2.9,4.7-4.7,9.1-4.7c7.1,0,12.9,6.1,12.9,15
				s-6.1,15.2-13.1,15.2C11.9,459.5,8.9,457.7,7.2,454.6z M20,444.3c0-4.3-2.4-6.9-6.3-6.9s-6.5,2.7-6.5,6.9c0,4.6,2.6,7.1,6.5,7.1
				C17.6,451.5,20,448.9,20,444.3z"/>
			<path class="st2" d="M34.7,444.4c0-8.8,7-15.2,16-15.2s15.9,6.3,15.9,15.2c0,8.8-6.9,15-15.9,15
				C41.7,459.5,34.7,453.2,34.7,444.4z M57.2,444.4c0-4.4-2.4-7.3-6.5-7.3s-6.6,2.9-6.6,7.3c0,4.3,2.5,7.3,6.6,7.3
				S57.2,448.7,57.2,444.4z"/>
			<path class="st2" d="M71.8,444.4c0-8.8,7-15.2,16-15.2s15.9,6.3,15.9,15.2c0,8.8-6.9,15-15.9,15
				C78.8,459.5,71.8,453.2,71.8,444.4z M94.3,444.4c0-4.4-2.4-7.3-6.5-7.3s-6.6,2.9-6.6,7.3c0,4.3,2.5,7.3,6.6,7.3
				C91.8,451.7,94.3,448.7,94.3,444.4z"/>
			<path class="st2" d="M119,458.9h-9.2v-49.1h9.2v25c0,2.2-0.2,4.4-0.5,6.3l9.6-11.2h10.2L128,441.7l11.4,17.1h-10.7l-7.2-10.9
				l-2.4,2.6v8.4H119z"/>
			<path class="st2" d="M143.1,444.8c0-8.2,6.3-14.7,14.6-14.7c5,0,8.5,1.9,11.1,5l-3.4,2.8c-1.7-2.2-4.1-3.6-7.7-3.6
				c-6,0-9.7,4.5-9.7,10.5s3.7,10.5,9.7,10.5c3.9,0,6.3-1.6,8.1-3.7l3.3,2.8c-2.7,3.2-6.1,5-11.4,5
				C149.4,459.4,143.1,453,143.1,444.8z"/>
			<path class="st2" d="M176.6,430.7h4.8l-0.1,5.5c1.8-4.3,4.9-6.1,8.2-6.1c2.1,0,3.6,0.5,4.9,1.4l-1.8,4.1
				c-0.9-0.6-2.1-1.1-3.9-1.1c-4,0-7.3,2.9-7.3,9.5v14.9h-4.8L176.6,430.7L176.6,430.7z"/>
			<path class="st2" d="M200.6,448v-17.3h4.8v16.8c0,4.9,2.3,7.6,6.9,7.6c5.3,0,8.8-3.4,8.8-8.9v-15.5h4.8v28.2h-4.8l0.1-5.7
				c-1.8,3.9-5.5,6.3-10.1,6.3C204.9,459.5,200.6,455.2,200.6,448z"/>
			<path class="st2" d="M235.9,430.7h4.8l-0.1,5.8c1.8-4,5.6-6.4,10.1-6.4c6.3,0,10.5,4.3,10.5,11.6v17.2h-4.8v-16.6
				c0-5-2.3-7.8-7-7.8c-5.2,0-8.8,3.3-8.8,8.9v15.5h-4.8L235.9,430.7L235.9,430.7z"/>
			<path class="st2" d="M269.3,444.8c0-8.2,6.3-14.7,14.6-14.7c5,0,8.5,1.9,11.1,5l-3.4,2.8c-1.7-2.2-4.1-3.6-7.7-3.6
				c-6,0-9.7,4.5-9.7,10.5s3.7,10.5,9.7,10.5c3.9,0,6.3-1.6,8.1-3.7l3.3,2.8c-2.7,3.2-6.1,5-11.4,5
				C275.6,459.4,269.3,453,269.3,444.8z"/>
			<path class="st2" d="M302.8,409.8h4.8v26.5c1.8-3.7,5.4-6.1,10-6.1c6.3,0,10.5,4.3,10.5,11.6v17.1h-4.8v-16.6c0-5-2.3-7.8-7-7.8
				c-5.2,0-8.8,3.3-8.8,8.9v15.5h-4.8L302.8,409.8L302.8,409.8z"/>
		</g>
	</g>
</g>
</svg>
