<?xml version="1.0" encoding="utf-8"?>
<!-- Generator: Adobe Illustrator 19.1.0, SVG Export Plug-In . SVG Version: 6.00 Build 0)  -->
<svg version="1.1" id="LOGO_xA0_Image_1_" xmlns="http://www.w3.org/2000/svg" xmlns:xlink="http://www.w3.org/1999/xlink" x="0px"
	 y="0px" viewBox="-150.1 348 71.4 79.9" style="enable-background:new -150.1 348 71.4 79.9;" xml:space="preserve">
<style type="text/css">
	.st0{fill:#B5B5B5;}
</style>
<g>
	<path class="st0" d="M-94.4,363.3c1.7,0.8,3.7,1.1,5.5,2c1.7,0.8,3.4,1.7,4.6,2.8c1,0.9,2.2,2.2,2.8,3.4c1.6,3.2,0.4,8.1-0.7,11.2
		c0.1,0.8,1.2,0.8,1.4,1.7c0.2,0.8-0.1,2.2-0.4,3.2c-0.2,0.6-0.6,1-0.8,1.5c-0.7,1.7-1.3,5.3-1.5,7.7c-0.1,1-0.3,2.2-0.1,2.8
		c0.2,0.9,1.6,1.4,2.4,2c0.9,0.7,1.6,1.3,2.4,1.8c-0.2,1.4,0.3,2.5,0,3.5c-0.3,0.9-2.4,2.3-3.1,3c-1.2,1.1-2.3,2-3.1,2.9
		c-0.1,1.3,0.3,2.1,0.1,3c-0.5,2.6-4.9,3.4-6.9,1.8c-1.7,1.6-3.6,2.9-5.5,4.5c-1.1,0.9-2,2-3.9,2.3c0.2,4.4-4.8,3.8-7.9,2.8
		c-0.4-1.4-0.9-2.8-1.3-4.2c-7.8-1.7-15.6-3.4-23.3-5.2c-0.4,2.3-0.6,4.3-2.3,5.1c-4,1.9-7.3-1.9-6.8-6.3c-2.9,0.2-5-0.3-6-2.1
		c-0.3-0.5-0.5-1.4-0.7-2.1c-0.3-0.8-0.6-1.5-0.6-2.1c0-3.7,3.4-5.2,5.3-6.9c-1-5.4-2-12.1-3.5-17.4c-0.5-1.9-1.2-3.8-1.5-6.5
		c-0.6-5.1-0.2-10.4,2.5-13.4c1.1-1.2,2.9-2.1,4.4-3c1.6-0.9,3.3-1.7,5.3-2c-1.3-6.3,2.2-9.7,7-10.7c0.7-0.1,1.6-0.1,2.5-0.4
		c0.8-0.3,1.3-1.2,2.1-1.5c1.7-0.8,4.5-0.5,6.6,0c1.5,0.4,2.8,1.2,4.5,1.4c4.2,0.5,8.1-1.5,12.4-1.5c2.9,0,5.8,0.7,7.6,2.1
		c1.8,1.4,3.4,4,3.1,6.6c-0.1,1.1-0.9,2-1.4,3.1C-93.6,361.2-93.9,362.3-94.4,363.3z M-110.5,351.5c-1.4,0.3-2.6-0.5-3.8-0.3
		c-0.4,0.1-0.7,0.4-1.1,0.4c-3.2,0.1-5.7-2.3-9.3-1.5C-122.2,353.1-114.7,352.5-110.5,351.5z M-98.6,368.1
		C-98.8,368.2-98.6,368.2-98.6,368.1c1.1-0.6,1.1-3.4,1.7-4.6c0.2-0.5,0.7-1,1-1.5c1.3-2.2,3.6-5.7,1.4-8.4
		c-2.1-2.6-6.9-4.1-11.4-3.2c1.7,0.3,3.4,0.5,5.2,0.6c1.2,1.3,4.6,2.5,5.1,4.5c0.2,0.9,0.3,4.3,0,5.3c-0.2,0.8-1.2,1.1-1.7,2
		C-98.3,364.3-98,366.3-98.6,368.1z M-107.1,366.5c0.7-1.2,1.9-1.8,2.5-2.8c0.6-0.9,1.1-2,1.4-3.2c0.5-2.7-0.7-4.8-2.2-5.8
		c-2.6-1.5-6.7-0.8-9.6-0.6c-3.1,0.2-5.8-0.1-7.9-0.7c-1.3-0.4-2.3-1.2-3.4-1.4c-0.8-0.1-1.8-0.1-2.7,0c-3.6,0.3-7.3,2.4-7.2,5.9
		c0.1,1.2,0.7,2.5,1.1,3.7c0.4,1.1,1,2.2,1.3,3.5c8.6,2.4,17.1,5,25.6,7.5C-108.1,369.9-108,368.1-107.1,366.5z M-99.3,355.4
		c1.3,4.1-1.8,9.1-2.8,12.2c0.4,0.3,1,0.4,1.4,0.7c0.5-4.1,1.9-7.4,3.9-10c0.5-2.6-0.8-3.6-2-4.6c-1-1-1.7-2.2-3.1-1.5
		C-100.7,352.7-99.7,354.3-99.3,355.4z M-102.3,355c0.3,0.8,0.3,1.9,0.4,3c0.3,3-0.2,5.5-1.4,7c-0.4,0.5-1.3,0.8-1.7,1.3
		c-1.4,1.7-1.2,3.7-1.4,6.2c0.3,0.2,0.7-0.8,1.3-0.8c0.7-1.8,0.5-3.6,1.1-5.2c0.4-0.9,1.2-1.6,1.7-2.4c0.5-0.9,1.2-1.9,1.4-2.8
		c1.1-4.1-0.8-7.6-3.4-8.7c-0.6,0.1-1.5-0.2-1.8,0.1C-104.3,353.1-102.9,353.6-102.3,355z M-147.9,376.2c0.9-3.9,4.7-5,9.7-4.6
		c4.2,0.3,8.5,1.6,12.5,2.7c4.1,1.1,8.1,2.4,11.7,3.7c1.9,0.7,4,1.1,5.8,1.8c5.1,2.3,6.9,8.9,7.2,15.7c0.3,7.8-0.9,12.3-2,19.7
		c0.7,0,1.9,0.5,2.8,0.3c0.5-0.1,1.3-0.8,2-1.3c3.6-2.5,6.1-4.4,9.4-6.9c1-0.8,3.3-2,3.5-3.1c0.1-0.5-0.3-1.4-0.4-2.1
		c-0.8-3.8-0.2-7.9,1-11.4c-1.1,0.5-2.2,1-3,1.8c-0.4,4-0.7,8.2-1,12.4c-1.3,0.4-2.4,1-3.9,1.3c-1.9-3.4-0.6-9.8,0.3-13.4
		c-1-0.4-1.9-0.9-2.7-1.5c-0.2-3.6,1.4-4.7,3.5-5.8c0.1-1.5,0-3.1,0.4-4.2c1.3-0.1,2.3-0.5,3.5-0.7c0.1,0.7,0.4,1.2,0.4,2
		c0.8,0,1.5-0.5,2.2-0.4s1,1.1,1.4,0.6c-0.2-2.7,1-5.1,0.7-7.2c-0.1-0.6-0.7-1.4-1.1-2.1c-1.2-2.1-2.8-4.3-4.6-5.5
		c-0.9-0.6-2.2-1-3.2-1.4c-1.2-0.5-2.3-0.9-3.4-1.4c0,0.7-0.2,1.2-0.3,1.8c0.3,0.7,1.3,0.6,1.5,1.4c-0.8,3.5-6.5,1.8-8.9,0.8
		c0,1.7,1.4,2,2,3.1c-0.4,0.9-1.4,1.5-2.4,2.1c-0.9,0.6-2.1,1.4-3.2,1.4c-1,0-2.3-0.7-3.7-1.1c-8.7-2.7-18.2-5.5-26-8.2
		c0.2-1.4,0.7-2.7-0.3-3.7C-143,364.4-148.1,368.3-147.9,376.2z M-102.7,399.7c0.3-7.3-0.8-15.4-5.5-18.1c-0.9-0.5-2.3-0.7-3.7-1.1
		c-1.2-0.4-2.4-0.9-3.5-1.3c-4.7-1.6-10-3.2-14.9-4.4c-3.3-0.8-7.2-2-11.3-1.5c-5.5,0.7-5.6,4.9-4.4,10.1c1.9,8.2,4,15.5,4.9,24.2
		c11.8,2.6,23,5.9,36.3,7C-103.7,409.9-102.9,404.9-102.7,399.7z M-140.7,419.7c0.7,0.6,1.5,1,2.3,1.5c0.8-0.3,1.8-0.5,2.4-1
		c-0.1-0.9-0.2-1.4,0-2.7c-1.4-0.6-2.4-1.5-4.6-1.3C-140.7,417.4-140.7,418.5-140.7,419.7z M-107.4,425.9c1.1,0,2.3,0,3.4,0
		c0-0.7,0-1.3,0-2c-1.5-0.3-3.4-0.9-4.8-0.8C-108.2,423.9-107.7,424.8-107.4,425.9z"/>
	<path class="st0" d="M-98.8,404.9c1.4-0.6,2.7-1,3.8-0.3c1.9,1.2,1.8,6-0.8,6.5c-1,0.2-3.2-0.4-3.7-1.1
		C-100.5,408.3-99.3,406.2-98.8,404.9z M-97.1,408.7c0.3-0.5,0.4-1.1,0.4-1.8C-98.5,406.3-98.7,408.8-97.1,408.7z"/>
</g>
</svg>
